<svg width="109" height="25" viewBox="0 0 109 25" fill="none" xmlns="http://www.w3.org/2000/svg">
<path d="M3.61953 24.1029C2.79286 24.1029 2.11286 23.8629 1.57953 23.3829C1.07286 22.9029 0.87286 22.1829 0.979526 21.2229C1.00619 20.8762 1.08619 20.5162 1.21953 20.1429C1.37953 19.7429 1.55286 19.3562 1.73953 18.9829C1.89953 18.6096 2.05953 18.4229 2.21953 18.4229C2.35286 18.4229 2.36619 18.5296 2.25953 18.7429C1.91286 19.4629 1.73953 20.1029 1.73953 20.6629C1.73953 21.2496 1.93953 21.6896 2.33953 21.9829C2.76619 22.2762 3.31286 22.4229 3.97953 22.4229C5.28619 22.4229 6.72619 22.0096 8.29953 21.1829C9.87286 20.3296 11.4995 19.2496 13.1795 17.9429C14.8595 16.6096 16.4729 15.2229 18.0195 13.7829C16.9795 13.7296 16.0062 13.6762 15.0995 13.6229C14.1929 13.5696 13.3929 13.5429 12.6995 13.5429C12.1129 13.5429 11.4062 13.5962 10.5795 13.7029C9.75286 13.8096 9.11286 14.0896 8.65953 14.5429C8.47286 14.7296 8.29953 15.0096 8.13953 15.3829C8.00619 15.7296 7.93953 16.0896 7.93953 16.4629C7.93953 16.5696 7.93953 16.6762 7.93953 16.7829C7.96619 16.8629 7.99286 16.9562 8.01953 17.0629C7.91286 17.0096 7.71286 16.9696 7.41953 16.9429C7.15286 16.8896 6.97953 16.7162 6.89953 16.4229C6.87286 16.3429 6.85953 16.2096 6.85953 16.0229C6.85953 15.5962 7.01953 15.2496 7.33953 14.9829C7.65953 14.6896 8.04619 14.4362 8.49953 14.2229C8.95286 14.0096 9.36619 13.8229 9.73953 13.6629C10.6195 13.2896 11.5262 12.9829 12.4595 12.7429C13.3929 12.5029 14.3395 12.3829 15.2995 12.3829C16.3929 12.3829 17.7529 12.4229 19.3795 12.5029C20.6329 11.2762 21.7929 10.1162 22.8595 9.0229C23.9262 7.92957 24.7929 7.0229 25.4595 6.3029C26.3929 5.31624 27.3795 4.47624 28.4195 3.7829C29.4862 3.0629 30.5662 2.55624 31.6595 2.2629H29.4595C28.5262 2.2629 27.5129 2.3029 26.4195 2.38291C25.3262 2.4629 24.2995 2.63624 23.3395 2.90291C22.3795 3.16957 21.5795 3.56957 20.9395 4.1029C20.5395 4.44957 20.2329 4.84957 20.0195 5.3029C19.8329 5.72957 19.7395 6.12957 19.7395 6.5029C19.7395 7.00957 19.8862 7.35624 20.1795 7.5429C20.2062 7.5429 20.2195 7.55624 20.2195 7.5829C20.2195 7.6629 20.1262 7.75624 19.9395 7.8629C19.7529 7.9429 19.6195 7.95624 19.5395 7.9029C19.2729 7.71624 19.0329 7.3429 18.8195 6.7829C18.6329 6.19624 18.5662 5.72957 18.6195 5.3829C18.7529 4.55624 19.1129 3.88957 19.6995 3.3829C20.3129 2.84957 21.0595 2.43624 21.9395 2.1429C22.8462 1.84957 23.7929 1.64957 24.7795 1.5429C25.7929 1.43624 26.7529 1.36957 27.6595 1.3429C28.5929 1.31624 29.3795 1.3029 30.0195 1.3029H34.3795C34.4329 1.3029 34.4462 1.31624 34.4195 1.3429C35.0862 1.04957 35.7795 0.756238 36.4995 0.462903C37.2462 0.169571 37.8862 0.0229044 38.4195 0.0229044C38.5529 0.0229044 38.6862 0.0629047 38.8195 0.142905C38.9795 0.222904 39.0595 0.302904 39.0595 0.382905C39.0595 0.516238 38.7929 0.582904 38.2595 0.582904C37.9929 0.582904 37.7129 0.636238 37.4195 0.742905C37.1529 0.822904 36.7929 1.1029 36.3395 1.5829C35.9662 1.95624 35.4995 2.55624 34.9395 3.3829C34.3795 4.20957 33.7662 5.1829 33.0995 6.3029C32.4329 7.39624 31.7662 8.56957 31.0995 9.8229C30.4329 11.0496 29.7929 12.2629 29.1795 13.4629C28.5662 14.6629 28.0329 15.7696 27.5795 16.7829C27.5262 16.9429 27.3795 17.3162 27.1395 17.9029C26.8995 18.4629 26.6729 19.0896 26.4595 19.7829C26.2462 20.4496 26.1395 21.0496 26.1395 21.5829C26.1395 22.3029 26.3929 22.6629 26.8995 22.6629C27.1395 22.6629 27.3795 22.6096 27.6195 22.5029C27.9662 22.3696 28.3262 22.1696 28.6995 21.9029C29.0729 21.6362 29.4329 21.3296 29.7795 20.9829C30.4729 20.3162 31.0595 19.6762 31.5395 19.0629C32.0195 18.4229 32.3129 18.0362 32.4195 17.9029C32.4995 17.7696 32.5929 17.7029 32.6995 17.7029C32.8062 17.7029 32.8595 17.7696 32.8595 17.9029C32.8595 17.9829 32.8195 18.0896 32.7395 18.2229C32.5529 18.4896 32.2062 18.9562 31.6995 19.6229C31.1929 20.2629 30.5929 20.9162 29.8995 21.5829C29.2329 22.2496 28.5129 22.7562 27.7395 23.1029C27.4995 23.2096 27.2462 23.2896 26.9795 23.3429C26.7129 23.4229 26.4462 23.4629 26.1795 23.4629C25.6462 23.4629 25.1529 23.2762 24.6995 22.9029C24.2729 22.5296 24.0595 21.9162 24.0595 21.0629C24.0595 20.2896 24.2062 19.4629 24.4995 18.5829C24.8195 17.6762 25.1129 16.9429 25.3795 16.3829C25.9129 15.2362 26.5395 13.9562 27.2595 12.5429C28.0062 11.1296 28.7662 9.71624 29.5395 8.30291C30.3395 6.88957 31.0729 5.60957 31.7395 4.4629C32.4062 3.31624 32.9529 2.4629 33.3795 1.9029C32.9529 1.9029 32.3795 2.07624 31.6595 2.4229C30.9395 2.74291 30.1662 3.18291 29.3395 3.7429C28.5395 4.27624 27.7929 4.9029 27.0995 5.62291C26.2729 6.47624 25.3129 7.51624 24.2195 8.7429C23.1529 9.96957 21.9929 11.2496 20.7395 12.5829C21.3529 12.6096 21.9662 12.6362 22.5795 12.6629C23.1929 12.6629 23.8062 12.6629 24.4195 12.6629C24.8462 12.6629 25.3129 12.6229 25.8195 12.5429C26.3529 12.4362 26.8462 12.2762 27.2995 12.0629C27.2995 12.0629 27.2195 12.2096 27.0595 12.5029C26.9262 12.7696 26.6862 13.0496 26.3395 13.3429C26.0195 13.6096 25.5795 13.7696 25.0195 13.8229C24.5129 13.8496 24.0062 13.8762 23.4995 13.9029C22.9929 13.9029 22.4862 13.9029 21.9795 13.9029C21.5529 13.9029 21.1262 13.9029 20.6995 13.9029C20.2995 13.9029 19.8995 13.8896 19.4995 13.8629C18.2729 15.1429 16.9929 16.3962 15.6595 17.6229C14.3262 18.8229 12.9795 19.9162 11.6195 20.9029C10.2595 21.8896 8.89953 22.6629 7.53953 23.2229C6.20619 23.8096 4.89953 24.1029 3.61953 24.1029ZM59.3117 7.8229C58.9384 7.8229 58.6717 7.7029 58.5117 7.4629C58.405 7.32957 58.3517 7.15624 58.3517 6.9429C58.3517 6.51624 58.5517 6.16957 58.9517 5.9029C59.245 5.7429 59.5117 5.6629 59.7517 5.6629C60.1517 5.6629 60.4317 5.7829 60.5917 6.0229C60.6984 6.15624 60.7517 6.32957 60.7517 6.5429C60.7517 6.96957 60.5384 7.31624 60.1117 7.5829C59.8717 7.7429 59.605 7.8229 59.3117 7.8229ZM52.3517 23.2229C52.085 23.2229 51.8584 23.1696 51.6717 23.0629C51.5117 22.9562 51.4317 22.7562 51.4317 22.4629C51.4317 22.0896 51.525 21.6496 51.7117 21.1429C51.925 20.6362 52.1517 20.1296 52.3917 19.6229C52.6584 19.1162 52.8584 18.7029 52.9917 18.3829C53.1784 18.0096 53.405 17.5296 53.6717 16.9429C53.965 16.3296 54.2317 15.7562 54.4717 15.2229C54.7384 14.6629 54.925 14.2762 55.0317 14.0629C54.6584 14.4629 54.205 14.9696 53.6717 15.5829C53.165 16.1696 52.685 16.7429 52.2317 17.3029C51.7784 17.8629 51.4317 18.3029 51.1917 18.6229C51.1117 18.7296 51.045 18.7829 50.9917 18.7829C50.9384 18.7829 50.9117 18.7162 50.9117 18.5829C50.9117 18.3696 50.9784 18.1696 51.1117 17.9829C51.6184 17.3429 52.1784 16.6229 52.7917 15.8229C53.4317 15.0229 54.005 14.2896 54.5117 13.6229C55.0184 12.9296 55.3384 12.4762 55.4717 12.2629C55.765 12.2096 56.1917 12.1296 56.7517 12.0229C57.3384 11.9162 57.7384 11.7696 57.9517 11.5829C58.0317 11.5029 58.1117 11.4629 58.1917 11.4629C58.245 11.4629 58.2717 11.5162 58.2717 11.6229C58.2984 11.7029 58.2717 11.7962 58.1917 11.9029C58.0317 12.0896 57.7517 12.5429 57.3517 13.2629C56.9517 13.9829 56.525 14.7829 56.0717 15.6629C55.645 16.5162 55.245 17.2896 54.8717 17.9829C54.4984 18.7029 54.1784 19.3962 53.9117 20.0629C53.645 20.7296 53.5117 21.2096 53.5117 21.5029C53.5117 21.8762 53.6984 22.0629 54.0717 22.0629C54.4184 22.0629 54.8584 21.8496 55.3917 21.4229C55.9517 20.9962 56.5117 20.4896 57.0717 19.9029C57.6317 19.2896 58.125 18.7296 58.5517 18.2229C58.685 18.0629 58.845 17.8762 59.0317 17.6629C59.245 17.4229 59.3784 17.2762 59.4317 17.2229C59.485 17.2762 59.5117 17.3696 59.5117 17.5029C59.485 17.6896 59.4184 17.8762 59.3117 18.0629C59.205 18.2229 59.0984 18.3696 58.9917 18.5029C58.4317 19.1962 57.8184 19.9162 57.1517 20.6629C56.485 21.3829 55.7517 21.9962 54.9517 22.5029C54.1517 22.9829 53.285 23.2229 52.3517 23.2229Z" fill="#809EBE"/>
<path d="M32.4427 23.7029C32.336 23.7029 32.336 23.5829 32.4427 23.3429C32.576 23.1029 32.696 22.8362 32.8027 22.5429C32.936 22.2496 33.0693 21.9296 33.2027 21.5829C33.4693 20.9429 33.7627 20.2229 34.0827 19.4229C34.4027 18.6229 34.7093 17.8496 35.0027 17.1029C35.296 16.3296 35.5493 15.6762 35.7627 15.1429C36.0027 14.5829 36.1627 14.2229 36.2427 14.0629C35.8693 14.4629 35.416 14.9696 34.8827 15.5829C34.376 16.1696 33.896 16.7429 33.4427 17.3029C32.9893 17.8629 32.6427 18.3029 32.4027 18.6229C32.3227 18.7296 32.256 18.7829 32.2027 18.7829C32.1493 18.7829 32.1227 18.7162 32.1227 18.5829C32.1227 18.3696 32.1893 18.1696 32.3227 17.9829C32.8293 17.3429 33.3893 16.6229 34.0027 15.8229C34.6427 15.0229 35.216 14.2896 35.7227 13.6229C36.2293 12.9296 36.5493 12.4762 36.6827 12.2629C36.976 12.2096 37.4027 12.1296 37.9627 12.0229C38.5493 11.9162 38.9493 11.7696 39.1627 11.5829C39.2427 11.5029 39.3227 11.4629 39.4027 11.4629C39.456 11.4629 39.4827 11.5162 39.4827 11.6229C39.5093 11.7029 39.4827 11.7962 39.4027 11.9029C39.2427 12.0896 38.9627 12.5296 38.5627 13.2229C38.1893 13.8896 37.776 14.6362 37.3227 15.4629C36.896 16.2896 36.496 17.0362 36.1227 17.7029C36.5493 17.1962 36.9627 16.7162 37.3627 16.2629C37.7893 15.8096 38.0827 15.4896 38.2427 15.3029C38.5627 14.9829 39.0027 14.5829 39.5627 14.1029C40.1227 13.6229 40.7093 13.1829 41.3227 12.7829C41.936 12.3829 42.4693 12.1562 42.9227 12.1029C43.0293 12.0762 43.1227 12.0629 43.2027 12.0629C43.2827 12.0629 43.3627 12.0629 43.4427 12.0629C43.9493 12.0629 44.2027 12.2496 44.2027 12.6229C44.2027 12.7829 44.1627 12.9696 44.0827 13.1829C44.0027 13.3962 43.896 13.6096 43.7627 13.8229C43.6027 14.1429 43.336 14.6496 42.9627 15.3429C42.5893 16.0096 42.256 16.6229 41.9627 17.1829L43.8427 15.3029C44.1627 14.9829 44.6027 14.5829 45.1627 14.1029C45.7227 13.6229 46.3093 13.1829 46.9227 12.7829C47.536 12.3829 48.0693 12.1562 48.5227 12.1029C48.6293 12.0762 48.7227 12.0629 48.8027 12.0629C48.9093 12.0629 48.9893 12.0629 49.0427 12.0629C49.6293 12.0629 49.9227 12.2762 49.9227 12.7029C49.9227 13.0229 49.7493 13.4496 49.4027 13.9829C49.216 14.2762 48.9227 14.7696 48.5227 15.4629C48.1227 16.1562 47.7093 16.9162 47.2827 17.7429C46.8827 18.5429 46.536 19.2896 46.2427 19.9829C45.9493 20.6762 45.8027 21.1829 45.8027 21.5029C45.8027 21.8762 45.9893 22.0629 46.3627 22.0629C46.7093 22.0629 47.1493 21.8629 47.6827 21.4629C48.2427 21.0362 48.8027 20.5296 49.3627 19.9429C49.9493 19.3562 50.456 18.7962 50.8827 18.2629C51.0693 18.0496 51.2427 17.8362 51.4027 17.6229C51.5893 17.3829 51.696 17.2496 51.7227 17.2229C51.776 17.2762 51.8027 17.3696 51.8027 17.5029C51.8027 17.6896 51.736 17.8762 51.6027 18.0629C51.496 18.2229 51.3893 18.3696 51.2827 18.5029C50.776 19.1696 50.1893 19.8629 49.5227 20.5829C48.8827 21.3029 48.176 21.9162 47.4027 22.4229C46.6293 22.9029 45.8027 23.1829 44.9227 23.2629C44.656 23.2896 44.3893 23.2362 44.1227 23.1029C43.856 22.9696 43.7227 22.7562 43.7227 22.4629C43.7227 22.0896 43.816 21.6496 44.0027 21.1429C44.216 20.6362 44.4427 20.1296 44.6827 19.6229C44.9493 19.1162 45.1493 18.7029 45.2827 18.3829C45.7627 17.4496 46.2027 16.5696 46.6027 15.7429C47.0027 14.9162 47.2827 14.3296 47.4427 13.9829C47.5227 13.8229 47.5627 13.6896 47.5627 13.5829C47.5627 13.3962 47.416 13.3829 47.1227 13.5429C46.8293 13.7029 46.4693 13.9429 46.0427 14.2629C45.6427 14.5829 45.2693 14.9029 44.9227 15.2229C44.576 15.5162 44.3493 15.7162 44.2427 15.8229C43.7893 16.2762 43.2427 16.8896 42.6027 17.6629C41.9893 18.4362 41.416 19.2496 40.8827 20.1029C40.3493 20.9296 39.976 21.7029 39.7627 22.4229C39.496 22.6629 39.2427 22.7829 39.0027 22.7829C38.816 22.7829 38.656 22.7162 38.5227 22.5829C38.416 22.4496 38.3627 22.2896 38.3627 22.1029C38.3627 21.5696 38.5227 20.9429 38.8427 20.2229C39.1893 19.4762 39.4693 18.8629 39.6827 18.3829C40.1627 17.4496 40.6027 16.5696 41.0027 15.7429C41.4027 14.9162 41.6827 14.3296 41.8427 13.9829C41.9227 13.8229 41.9627 13.6896 41.9627 13.5829C41.9627 13.3962 41.816 13.3829 41.5227 13.5429C41.2293 13.7029 40.8693 13.9429 40.4427 14.2629C40.0427 14.5829 39.6693 14.9029 39.3227 15.2229C38.976 15.5162 38.7493 15.7162 38.6427 15.8229C38.0027 16.4896 37.4027 17.1696 36.8427 17.8629C36.3093 18.5562 35.856 19.3029 35.4827 20.1029C35.2693 20.5829 35.0427 21.1162 34.8027 21.7029C34.5627 22.2896 34.3627 22.7829 34.2027 23.1829C33.856 23.2096 33.5093 23.3029 33.1627 23.4629C32.816 23.6229 32.576 23.7029 32.4427 23.7029ZM58.927 23.6629C58.8204 23.6629 58.8204 23.5562 58.927 23.3429C59.0604 23.1029 59.1804 22.8362 59.287 22.5429C59.4204 22.2496 59.5537 21.9296 59.687 21.5829C59.9537 20.9429 60.247 20.2229 60.567 19.4229C60.887 18.6229 61.1937 17.8496 61.487 17.1029C61.7804 16.3296 62.0337 15.6762 62.247 15.1429C62.487 14.5829 62.647 14.2229 62.727 14.0629C62.3537 14.4629 61.9004 14.9696 61.367 15.5829C60.8604 16.1696 60.3804 16.7429 59.927 17.3029C59.4737 17.8629 59.127 18.3029 58.887 18.6229C58.807 18.7296 58.7404 18.7829 58.687 18.7829C58.6337 18.7829 58.607 18.7162 58.607 18.5829C58.607 18.3696 58.6737 18.1696 58.807 17.9829C59.3137 17.3429 59.8737 16.6229 60.487 15.8229C61.127 15.0229 61.7004 14.2896 62.207 13.6229C62.7137 12.9296 63.0337 12.4762 63.167 12.2629C63.4604 12.2096 63.887 12.1296 64.447 12.0229C65.0337 11.9162 65.4337 11.7696 65.647 11.5829C65.727 11.5029 65.807 11.4629 65.887 11.4629C65.9404 11.4629 65.967 11.5162 65.967 11.6229C65.9937 11.7029 65.967 11.7962 65.887 11.9029C65.727 12.0629 65.487 12.4096 65.167 12.9429C64.8737 13.4762 64.5404 14.0896 64.167 14.7829C63.7937 15.4762 63.4337 16.1429 63.087 16.7829C63.3537 16.3829 63.7004 15.9162 64.127 15.3829C64.5804 14.8229 65.0737 14.2896 65.607 13.7829C66.1404 13.2496 66.6737 12.8096 67.207 12.4629C67.767 12.1162 68.287 11.9429 68.767 11.9429C69.1137 11.9429 69.407 12.0229 69.647 12.1829C69.887 12.3162 70.0737 12.5696 70.207 12.9429C70.287 13.1296 70.327 13.3429 70.327 13.5829C70.327 14.0362 70.207 14.4762 69.967 14.9029C69.7537 15.3029 69.5937 15.6096 69.487 15.8229C69.4604 15.9029 69.367 15.9829 69.207 16.0629C69.047 16.1162 68.9804 16.0896 69.007 15.9829C69.0337 15.8496 69.047 15.7162 69.047 15.5829C69.0737 15.4496 69.087 15.3029 69.087 15.1429C69.087 14.6896 68.9937 14.2762 68.807 13.9029C68.647 13.5296 68.3404 13.3429 67.887 13.3429C67.4604 13.3429 66.9404 13.6096 66.327 14.1429C65.7137 14.6762 65.1004 15.2896 64.487 15.9829C63.7137 16.8896 63.1004 17.7562 62.647 18.5829C62.1937 19.3829 61.8204 20.1696 61.527 20.9429C61.367 21.3696 61.207 21.7962 61.047 22.2229C60.887 22.6229 60.767 22.9429 60.687 23.1829C60.3404 23.2096 59.9937 23.2896 59.647 23.4229C59.3004 23.5829 59.0604 23.6629 58.927 23.6629ZM71.8655 23.4229C70.7721 23.4229 70.0121 23.2096 69.5855 22.7829C69.1588 22.3562 68.9455 21.8362 68.9455 21.2229C68.9455 20.4496 69.1455 19.6229 69.5455 18.7429C69.9721 17.8629 70.3721 17.1162 70.7455 16.5029C71.1721 15.8629 71.7455 15.1962 72.4655 14.5029C73.1855 13.8096 73.9721 13.2229 74.8255 12.7429C75.6788 12.2629 76.5055 12.0229 77.3055 12.0229C77.9988 12.0229 78.4788 12.1962 78.7455 12.5429C79.0121 12.8629 79.1455 13.2496 79.1455 13.7029C79.1455 14.5296 78.8921 15.2096 78.3855 15.7429C77.9055 16.2762 77.3055 16.7162 76.5855 17.0629C75.8655 17.3829 75.1721 17.6496 74.5055 17.8629C74.1055 17.9696 73.6388 18.0762 73.1055 18.1829C72.5721 18.2896 72.0655 18.3429 71.5855 18.3429C71.3988 18.8229 71.2521 19.2896 71.1455 19.7429C71.0388 20.1962 70.9855 20.6096 70.9855 20.9829C70.9855 21.4362 71.0921 21.8096 71.3055 22.1029C71.5455 22.3962 71.9321 22.5429 72.4655 22.5429C72.6788 22.5429 72.9321 22.5162 73.2255 22.4629C73.5188 22.4096 73.8388 22.3296 74.1855 22.2229C74.9855 21.9562 75.7721 21.5296 76.5455 20.9429C77.3188 20.3562 78.0255 19.7296 78.6655 19.0629C79.3321 18.3696 79.8388 17.7962 80.1855 17.3429C80.2655 17.4229 80.3055 17.5162 80.3055 17.6229C80.3055 17.7562 80.2121 17.9696 80.0255 18.2629C79.4921 19.0096 78.7988 19.7829 77.9455 20.5829C77.0921 21.3829 76.1455 22.0629 75.1055 22.6229C74.0655 23.1562 72.9855 23.4229 71.8655 23.4229ZM71.9055 17.5429C72.2521 17.5696 72.6388 17.5696 73.0655 17.5429C73.5188 17.4896 73.9588 17.3962 74.3855 17.2629C75.4788 16.9429 76.2655 16.4362 76.7455 15.7429C77.2521 15.0229 77.5055 14.3829 77.5055 13.8229C77.5055 13.5029 77.4388 13.2362 77.3055 13.0229C77.1721 12.8096 76.9588 12.7029 76.6655 12.7029C75.8921 12.7029 75.1988 12.9962 74.5855 13.5829C73.9721 14.1429 73.4388 14.7962 72.9855 15.5429C72.5321 16.2896 72.1721 16.9562 71.9055 17.5429ZM81.7864 23.2229C81.5197 23.2229 81.2931 23.1696 81.1064 23.0629C80.9197 22.9562 80.8264 22.7562 80.8264 22.4629C80.8264 22.0896 80.9197 21.6496 81.1064 21.1429C81.3197 20.6362 81.5464 20.1296 81.7864 19.6229C82.0264 19.1162 82.2264 18.7029 82.3864 18.3829C82.7064 17.7696 83.0131 17.1562 83.3064 16.5429C83.5997 15.9296 83.8531 15.4096 84.0664 14.9829C84.2797 14.5829 84.3864 14.3162 84.3864 14.1829C84.3864 13.9696 84.2264 13.9696 83.9064 14.1829C83.6131 14.3962 83.3331 14.6096 83.0664 14.8229C82.4797 15.3829 81.8664 16.0496 81.2264 16.8229C80.5864 17.5696 80.0931 18.1696 79.7464 18.6229C79.6664 18.7296 79.5997 18.7829 79.5464 18.7829C79.4931 18.7829 79.4664 18.7162 79.4664 18.5829C79.4664 18.3696 79.5331 18.1696 79.6664 17.9829C80.0397 17.4496 80.4797 16.8629 80.9864 16.2229C81.4931 15.5829 82.0131 14.9696 82.5464 14.3829C83.0531 13.8496 83.5731 13.3296 84.1064 12.8229C84.6397 12.3162 85.3197 12.0629 86.1464 12.0629C86.7064 12.0629 86.9864 12.2762 86.9864 12.7029C86.9864 13.0762 86.8264 13.5029 86.5064 13.9829C86.3197 14.2762 86.0264 14.7696 85.6264 15.4629C85.2264 16.1562 84.8131 16.9162 84.3864 17.7429C83.9864 18.5429 83.6397 19.2896 83.3464 19.9829C83.0531 20.6762 82.9064 21.1829 82.9064 21.5029C82.9064 21.8762 83.0931 22.0629 83.4664 22.0629C83.7597 22.0629 84.1197 21.9162 84.5464 21.6229C84.9731 21.3029 85.4131 20.9296 85.8664 20.5029C86.6931 19.7029 87.4397 18.8362 88.1064 17.9029C88.7997 16.9429 89.3864 16.0229 89.8664 15.1429C90.3731 14.2629 90.7731 13.5429 91.0664 12.9829C91.1197 12.8762 91.1731 12.7562 91.2264 12.6229C91.3064 12.4629 91.4264 12.3696 91.5864 12.3429C91.7464 12.3162 92.0931 12.3029 92.6264 12.3029C93.1597 12.3029 93.6531 12.1962 94.1064 11.9829H94.1864C94.2664 11.9829 94.3064 12.0229 94.3064 12.1029C94.3064 12.3162 94.1331 12.4762 93.7864 12.5829C93.4664 12.6896 93.0931 13.0096 92.6664 13.5429C92.2664 14.0762 91.8664 14.7296 91.4664 15.5029C91.0664 16.2496 90.7064 17.0229 90.3864 17.8229C90.0664 18.6229 89.8264 19.3562 89.6664 20.0229C89.5064 20.6896 89.4664 21.1829 89.5464 21.5029C89.6531 21.8762 89.8397 22.0629 90.1064 22.0629C90.4531 22.0629 90.9331 21.8496 91.5464 21.4229C92.1864 20.9962 92.8397 20.4896 93.5064 19.9029C94.1731 19.2896 94.7197 18.7296 95.1464 18.2229C95.3331 18.0096 95.5064 17.7962 95.6664 17.5829C95.8264 17.3696 95.9331 17.2362 95.9864 17.1829C96.0131 17.2096 96.0397 17.2629 96.0664 17.3429C96.0931 17.3962 96.1064 17.4496 96.1064 17.5029C96.0797 17.6896 96.0131 17.8762 95.9064 18.0629C95.7997 18.2229 95.6797 18.3696 95.5464 18.5029C95.0397 19.1696 94.4264 19.8762 93.7064 20.6229C93.0131 21.3429 92.2531 21.9562 91.4264 22.4629C90.6264 22.9696 89.7997 23.2229 88.9464 23.2229C88.6797 23.2229 88.3731 23.1562 88.0264 23.0229C87.7064 22.8896 87.5464 22.5962 87.5464 22.1429C87.5464 21.7962 87.6397 21.3296 87.8264 20.7429C88.0131 20.1296 88.2131 19.5296 88.4264 18.9429C88.6664 18.3296 88.8664 17.8762 89.0264 17.5829C88.6797 18.0896 88.2531 18.6629 87.7464 19.3029C87.2664 19.9162 86.7731 20.4629 86.2664 20.9429C85.5997 21.5829 84.8797 22.1296 84.1064 22.5829C83.3597 23.0096 82.5864 23.2229 81.7864 23.2229ZM101.65 23.3429C101.383 23.3429 101.116 23.2762 100.85 23.1429C100.503 22.9829 100.17 22.6629 99.8495 22.1829C99.5295 21.7029 99.2629 21.1962 99.0495 20.6629C98.8362 20.1296 98.6895 19.6896 98.6095 19.3429C97.8629 19.9829 97.2229 20.6096 96.6895 21.2229C96.1562 21.8362 95.5429 22.4896 94.8495 23.1829C94.7695 23.2629 94.5695 23.3029 94.2495 23.3029C94.0629 23.3029 93.8762 23.2762 93.6895 23.2229C93.5029 23.1696 93.4095 23.0896 93.4095 22.9829C93.4095 22.8496 93.4895 22.7296 93.6495 22.6229C94.5829 21.8762 95.3962 21.2362 96.0895 20.7029C96.7829 20.1429 97.5829 19.4896 98.4895 18.7429C98.4629 18.6096 98.4095 18.3162 98.3295 17.8629C98.2495 17.4096 98.1562 16.9162 98.0495 16.3829C97.9695 15.8496 97.9029 15.3829 97.8495 14.9829C97.7962 14.5562 97.7695 14.3029 97.7695 14.2229C97.8229 13.9029 97.9962 13.6229 98.2895 13.3829C98.5829 13.1162 98.9162 12.9162 99.2895 12.7829C99.6895 12.6229 100.036 12.5429 100.33 12.5429C100.703 12.5429 100.89 12.6362 100.89 12.8229C100.89 12.9296 100.783 12.9829 100.57 12.9829C100.223 12.9829 100.01 13.1296 99.9295 13.4229C99.8495 13.7162 99.7962 13.9562 99.7695 14.1429C99.7429 14.3029 99.7162 14.4629 99.6895 14.6229C99.6895 14.7829 99.6895 14.9429 99.6895 15.1029C99.6895 15.5029 99.7162 15.9029 99.7695 16.3029C99.8229 16.7029 99.8895 17.0896 99.9695 17.4629C100.103 17.3562 100.37 17.1429 100.77 16.8229C101.17 16.5029 101.636 16.1296 102.17 15.7029C102.703 15.2762 103.236 14.8496 103.77 14.4229C104.303 13.9962 104.756 13.6362 105.13 13.3429C105.503 13.0496 105.73 12.8762 105.81 12.8229C106.13 12.6096 106.516 12.5162 106.97 12.5429C107.45 12.5429 107.863 12.5429 108.21 12.5429C108.29 12.5429 108.33 12.6229 108.33 12.7829C108.33 13.0229 108.276 13.1429 108.17 13.1429C107.796 13.1696 107.41 13.2629 107.01 13.4229C106.636 13.5562 106.343 13.6762 106.13 13.7829C105.516 14.0496 104.836 14.4496 104.09 14.9829C103.37 15.4896 102.663 16.0229 101.97 16.5829C101.276 17.1162 100.663 17.6096 100.13 18.0629C100.183 18.3029 100.29 18.7162 100.45 19.3029C100.636 19.8896 100.863 20.4496 101.13 20.9829C101.45 21.6762 101.836 22.0229 102.29 22.0229C102.663 22.0229 103.023 21.8096 103.37 21.3829C103.716 20.9562 104.01 20.4762 104.25 19.9429C104.516 19.3829 104.69 18.9162 104.77 18.5429C104.823 18.3829 104.89 18.3029 104.97 18.3029C105.156 18.3029 105.223 18.4496 105.17 18.7429C105.036 19.3562 104.81 20.0229 104.49 20.7429C104.17 21.4629 103.77 22.0762 103.29 22.5829C102.81 23.0896 102.263 23.3429 101.65 23.3429Z" fill="white"/>
</svg>
